<svg id="visual" viewBox="0 0 900 600" width="900" height="600" xmlns="http://www.w3.org/2000/svg" xmlns:xlink="http://www.w3.org/1999/xlink" version="1.1"><rect x="0" y="0" width="900" height="600" fill="#E89C92"></rect><path d="M0 394L11.5 407C23 420 46 446 69 458.5C92 471 115 470 138.2 467.5C161.3 465 184.7 461 207.8 463.5C231 466 254 475 277 462C300 449 323 414 346 403.2C369 392.3 392 405.7 415.2 408.7C438.3 411.7 461.7 404.3 484.8 408.5C508 412.7 531 428.3 554 433.2C577 438 600 432 623 438.8C646 445.7 669 465.3 692.2 452.8C715.3 440.3 738.7 395.7 761.8 390.5C785 385.3 808 419.7 831 437C854 454.3 877 454.7 888.5 454.8L900 455L900 601L888.5 601C877 601 854 601 831 601C808 601 785 601 761.8 601C738.7 601 715.3 601 692.2 601C669 601 646 601 623 601C600 601 577 601 554 601C531 601 508 601 484.8 601C461.7 601 438.3 601 415.2 601C392 601 369 601 346 601C323 601 300 601 277 601C254 601 231 601 207.8 601C184.7 601 161.3 601 138.2 601C115 601 92 601 69 601C46 601 23 601 11.5 601L0 601Z" fill="#D55F5B" stroke-linecap="round" stroke-linejoin="miter"></path></svg>